<svg height="18pt" viewBox="0 0 510 510" width="18pt" xmlns="http://www.w3.org/2000/svg"><path d="m433.601562 399.101562c-3.5-3.601562-7.800781-6.300781-12.5-8-2-.902343-3.800781-1.800781-5.402343-2.703124-9.597657-5.097657-19.300781-10.296876-28.800781-15.699219-9.097657-5.597657-19.097657-9.597657-29.597657-11.898438-1.5-.300781-3.101562-.699219-4.699219-1.101562 1.097657 18.300781-.601562 46.101562-16.5 66h88.597657c5 .101562 9.199219-3.898438 9.300781-9v-8.300781c0-1.097657.101562-2.199219.101562-3.398438.296876-2 .097657-4-.5-5.898438zm-98.703124-46.300781c-4.199219-2-8.097657-4.199219-11.597657-6.101562v10.800781c0 4.699219-3.800781 8.5-8.5 8.5s-8.5-3.800781-8.5-8.5v-23.601562c-8.902343 12.203124-17.402343 23.601562-37.902343 23.601562h-26.597657c-20.5 0-29-11.398438-37.902343-23.601562v23.601562c0 4.699219-3.796876 8.5-8.5 8.5-4.699219 0-8.5-3.800781-8.5-8.5v-10.800781c-3.5 2-7.398438 4.101562-11.597657 6.101562-2.101562 17.699219-3.402343 57.699219 24.699219 72.898438h110.300781c28-15.199219 26.699219-55.199219 24.597657-72.898438zm-177.5 6.898438c-1.597657.402343-3.199219.800781-4.699219 1.101562-10.5 2.199219-20.5 6.300781-29.597657 11.898438-9.5 5.402343-19.101562 10.601562-28.800781 15.699219-1.601562.902343-3.402343 1.800781-5.402343 2.703124-4.699219 1.699219-9 4.398438-12.5 8-.597657 1.898438-.796876 3.898438-.5 5.898438 0 1.199219.101562 2.300781.101562 3.398438v8.300781c.101562 5 4.300781 9 9.300781 9h88.597657c-15.898438-19.898438-17.597657-47.699219-16.5-66zm32.203124-66.800781c1.296876 1.300781 2.699219 2.601562 4.398438 4 8.800781 7.703124 16.601562 16.601562 23.199219 26.300781 8.800781 12.199219 12.902343 17.199219 24.5 17.199219h26.601562c11.597657 0 15.699219-4.898438 24.5-17.199219 6.597657-9.699219 14.398438-18.5 23.199219-26.300781 1.601562-1.398438 3.101562-2.699219 4.398438-4l8.902343-20.796876h-148.5zm150.5-137.296876c0-2.300781-.101562-4.402343-.203124-6.5l-.296876-4.601562c-2.902343-56.601562-77.601562-60.199219-78.300781-60.199219h-13c-2.699219.097657-75.101562 3.800781-78 60.199219l-.300781 4.699219c-.101562 2.199219-.199219 4.199219-.199219 6.101562-.300781 10.800781-.300781 20.199219.199219 29.398438.5 10.5 1.898438 20.902343 4.101562 31.101562 1.796876 7.398438 2.699219 15 2.796876 22.597657l-.199219 5.5v1l-.300781 6.902343c-.097657 1.097657-.097657 2.097657 0 3.199219h156.800781c.101562-1.101562.101562-2.101562 0-3.199219l-.300781-6.902343v-1l-.199219-5.5c.101562-7.597657 1-15.199219 2.800781-22.597657 2.199219-10.300781 3.601562-20.699219 4.101562-31.101562.796876-9.199219.796876-18.699219.5-29.097657zm-182.601562 63.597657c-2.101562-9.800781-3.5-19.699219-4.199219-29.699219-2.199219-1.800781-5-2.699219-7.902343-2.601562-1.796876 8-1.898438 16.300781-.296876 24.300781 2.597657 7.601562 7.5 14.199219 14.199219 18.699219-.402343-3.597657-1.101562-6.898438-1.800781-10.699219zm207.199219-32.398438c-2.898438-.101562-5.699219.800781-7.898438 2.597657-.699219 10-2.101562 19.902343-4.199219 29.703124-.800781 3.796876-1.5 7.199219-1.902343 10.699219 6.699219-4.601562 11.699219-11.402343 14.199219-19.199219 1.5-7.800781 1.5-15.902343-.199219-23.800781zm0 0"/><path d="m7.5 74.800781c-4.101562 0-7.5-3.402343-7.5-7.5v-25.601562c0-23 18.699219-41.699219 41.699219-41.699219h25.601562c4.097657 0 7.5 3.398438 7.5 7.5s-3.402343 7.5-7.5 7.5h-25.601562c-14.699219 0-26.699219 12-26.699219 26.699219v25.601562c0 4.097657-3.300781 7.5-7.5 7.5zm0 0"/><path d="m67.300781 510h-25.601562c-23 0-41.699219-18.699219-41.699219-41.699219v-25.601562c0-4.097657 3.398438-7.5 7.5-7.5s7.5 3.402343 7.5 7.5v25.601562c0 14.699219 12 26.699219 26.699219 26.699219h25.601562c4.097657 0 7.5 3.398438 7.5 7.5s-3.402343 7.5-7.5 7.5zm0 0"/><path d="m468.300781 510h-25.601562c-4.097657 0-7.5-3.398438-7.5-7.5s3.402343-7.5 7.5-7.5h25.601562c14.699219 0 26.699219-12 26.699219-26.699219v-25.601562c0-4.097657 3.398438-7.5 7.5-7.5s7.5 3.402343 7.5 7.5v25.601562c0 23-18.699219 41.699219-41.699219 41.699219zm0 0"/><path d="m502.5 74.800781c-4.101562 0-7.5-3.402343-7.5-7.5v-25.601562c0-14.699219-12-26.699219-26.699219-26.699219h-25.601562c-4.097657 0-7.5-3.398438-7.5-7.5s3.402343-7.5 7.5-7.5h25.601562c23 0 41.597657 18.699219 41.597657 41.601562v25.597657c.101562 4.199219-3.296876 7.601562-7.398438 7.601562zm0 0"/><path d="m41.699219 74.800781c-4.097657 0-7.5-3.402343-7.5-7.5v-17.101562c0-8.800781 7.199219-16 16-16h17.101562c4.097657 0 7.5 3.402343 7.5 7.5 0 4.101562-3.402343 7.5-7.5 7.5h-17.101562c-.597657 0-1 .5-1 1v17.101562c0 4.097657-3.398438 7.5-7.5 7.5zm0 0"/><path d="m67.300781 475.800781h-17.101562c-8.800781 0-16-7.199219-16-16v-17.101562c0-4.097657 3.402343-7.5 7.5-7.5 4.101562 0 7.5 3.402343 7.5 7.5v17.101562c0 .597657.5 1 1 1h17.101562c4.097657 0 7.5 3.398438 7.5 7.5 0 4.097657-3.402343 7.5-7.5 7.5zm0 0"/><path d="m459.800781 475.800781h-17.101562c-4.097657 0-7.5-3.402343-7.5-7.5 0-4.101562 3.402343-7.5 7.5-7.5h17.101562c.597657 0 1-.5 1-1v-17.101562c0-4.097657 3.398438-7.5 7.5-7.5 4.097657 0 7.5 3.402343 7.5 7.5v17.101562c0 8.800781-7.199219 16-16 16zm0 0"/><path d="m468.300781 74.800781c-4.101562 0-7.5-3.402343-7.5-7.5v-17.101562c0-.597657-.5-1-1-1h-17.101562c-4.097657 0-7.5-3.398438-7.5-7.5 0-4.097657 3.402343-7.5 7.5-7.5h17.101562c8.800781 0 16 7.199219 16 16v17.101562c0 4.097657-3.300781 7.5-7.5 7.5zm0 0"/><path d="m180 270.398438.800781 1.703124h-147.699219c-4.703124 0-8.5-3.800781-8.5-8.5 0-4.703124 3.796876-8.5 8.5-8.5h143.398438c.199219 5.199219 1.398438 10.398438 3.5 15.296876zm0 0"/><path d="m485.398438 263.5c0 4.699219-3.796876 8.5-8.5 8.5h-147.699219l.800781-1.699219c2.101562-4.902343 3.300781-10.101562 3.398438-15.402343h143.402343c4.800781.101562 8.597657 3.902343 8.597657 8.601562zm0 0"/></svg>