<svg height="512pt" viewBox="0 0 512 512" width="512pt" xmlns="http://www.w3.org/2000/svg"><path d="m442.027344 395.777344c-3.925782-6.742188-14.761719-10.410156-21.335938-13.910156-9.554687-5.121094-19.113281-10.242188-28.5-15.617188-9.984375-6.011719-20.878906-10.363281-32.253906-12.882812-5.597656-1.160157-11.035156-2.964844-16.214844-5.378907-9.78125-4.449219-19.148437-9.761719-27.988281-15.871093h-119.46875c-8.839844 6.109374-18.207031 11.421874-27.988281 15.871093-5.179688 2.414063-10.617188 4.21875-16.214844 5.378907-11.375 2.519531-22.269531 6.871093-32.253906 12.882812-9.386719 5.375-18.945313 10.496094-28.5 15.617188-6.574219 3.5-17.410156 7.167968-21.335938 13.910156-1.742187 4.296875-2.273437 8.988281-1.535156 13.566406-.085938 2.816406-.085938 5.632812 0 8.363281.039062 4.6875 1.941406 9.164063 5.289062 12.445313 3.34375 3.28125 7.859376 5.097656 12.546876 5.046875h339.453124c4.6875.050781 9.203126-1.765625 12.546876-5.046875 3.347656-3.28125 5.25-7.757813 5.289062-12.445313.085938-2.730469.085938-5.546875 0-8.363281.738281-4.578125.207031-9.269531-1.535156-13.566406zm0 0" fill="#ffe0b2"/><g fill="#f44335"><path d="m198.828125 435.199219h-112.554687c-4.6875.050781-9.203126-1.765625-12.546876-5.046875-3.347656-3.28125-5.25-7.757813-5.289062-12.445313-.085938-2.730469-.085938-5.546875 0-8.363281-.738281-4.578125-.207031-9.269531 1.535156-13.566406 3.925782-6.742188 14.761719-10.410156 21.335938-13.910156 9.554687-5.121094 19.113281-10.242188 28.5-15.617188 9.984375-6.011719 20.878906-10.363281 32.253906-12.882812 5.597656-1.160157 11.035156-2.964844 16.214844-5.378907-1.621094 10.496094-9.128906 67.925781 30.550781 87.210938zm0 0"/><path d="m443.5625 409.34375c.085938 2.816406.085938 5.632812 0 8.363281-.039062 4.6875-1.941406 9.164063-5.289062 12.445313-3.34375 3.28125-7.859376 5.097656-12.546876 5.046875h-112.554687c33.878906-16.46875 33.367187-60.757813 31.488281-79.871094-.339844-3.242187-.679687-5.804687-.9375-7.339844 5.179688 2.414063 10.617188 4.21875 16.214844 5.378907 11.375 2.519531 22.269531 6.871093 32.253906 12.882812 9.386719 5.375 18.945313 10.496094 28.5 15.617188 6.574219 3.5 17.410156 7.167968 21.335938 13.910156 1.742187 4.296875 2.273437 8.988281 1.535156 13.566406zm0 0"/><path d="m420.523438 409.34375c.085937 2.816406.085937 5.632812 0 8.363281-.042969 4.6875-1.945313 9.164063-5.289063 12.445313-3.347656 3.28125-7.859375 5.097656-12.546875 5.046875h-89.515625c33.878906-16.46875 33.367187-60.757813 31.488281-79.871094 8.550782 2.703125 16.765625 6.367187 24.492188 10.921875 9.386718 5.375 18.945312 10.496094 28.5 15.617188 6.570312 3.5 17.410156 7.167968 21.335937 13.910156 1.742188 4.296875 2.273438 8.988281 1.535157 13.566406zm0 0"/></g><path d="m315.734375 309.675781v48.722657s-8.535156 42.667968-59.734375 42.667968-59.734375-42.667968-59.734375-42.667968v-48.722657zm0 0" fill="#bfa885"/><path d="m342.785156 186.027344c4.601563-5.117188 11.546875-7.445313 18.304688-6.144532 9.386718 3.328126 4.675781 33.621094 4.675781 33.621094-4.136719 14.71875-15.019531 26.597656-29.320313 32h-160.863281c-14.304687-5.421875-25.207031-17.285156-29.398437-32 0 0-4.589844-30.292968 4.839844-33.621094 6.730468-1.300781 13.648437 1.03125 18.21875 6.144532zm0 0" fill="#bfa885"/><path d="m342.527344 239.359375c0 22.699219 6.65625 42.242187-19.96875 65.023437-26.621094 22.785157-26.621094 45.484376-53.246094 45.484376h-26.625c-26.625 0-26.625-22.785157-53.246094-45.484376-26.625-22.699218-19.96875-42.324218-19.96875-65.023437s-9.984375-29.269531-6.65625-94.292969c2.816406-54.273437 61.097656-65.449218 80.382813-67.753906 3.839843-.425781 6.144531-.511719 6.144531-.511719h13.3125s83.199219 3.242188 86.527344 68.265625c3.328125 65.023438-6.65625 71.507813-6.65625 94.292969zm0 0" fill="#bfa885"/><path d="m316.929688 239.359375c0 22.699219 6.65625 42.242187-19.96875 65.023437-26.625 22.785157-26.625 45.484376-53.25 45.484376h-1.023438c-26.625 0-26.625-22.785157-53.246094-45.484376-26.625-22.699218-19.96875-42.324218-19.96875-65.023437s-9.984375-29.269531-6.65625-94.292969c2.816406-54.273437 61.097656-65.449218 80.382813-67.753906 19.285156 2.304688 77.570312 13.480469 80.386719 67.753906 3.324218 65.023438-6.65625 71.507813-6.65625 94.292969zm0 0" fill="#ffe0b2"/><path d="m452.128906 417.730469v-8.410157c0-.855468 0-1.761718.0625-2.648437.582032-5.230469-.398437-10.515625-2.824218-15.1875-5.0625-6.820313-12.03125-11.984375-20.03125-14.839844-1.703126-.792969-3.242188-1.535156-4.625-2.269531-9.480469-5.121094-18.960938-10.179688-28.296876-15.523438-10.769531-6.535156-22.566406-11.210937-34.890624-13.824218-13.300782-3.703125-25.890626-9.589844-37.257813-17.425782v-13.148437c1.246094-1.1875 2.414063-2.371094 3.796875-3.550781 2.355469-1.996094 4.597656-4.113282 6.726562-6.347656 2.179688-2.191407 3.003907-5.390626 2.15625-8.363282-.851562-2.972656-3.242187-5.253906-6.253906-5.960937-3.007812-.710938-6.164062.265625-8.25 2.546875-1.714844 1.804687-3.523437 3.515625-5.417968 5.121094-8.820313 7.746093-16.621094 16.578124-23.210938 26.292968-8.800781 12.191406-12.878906 17.140625-24.5 17.140625h-26.625c-11.621094 0-15.667969-4.949219-24.5-17.152343-6.597656-9.71875-14.40625-18.5625-23.234375-26.316407-1.890625-1.605469-3.691406-3.316406-5.394531-5.117187-2.085938-2.285156-5.242188-3.257813-8.25-2.550782-3.011719.707032-5.402344 2.988282-6.253906 5.960938-.847657 2.972656-.023438 6.171875 2.15625 8.363281 2.117187 2.226563 4.355468 4.335938 6.699218 6.324219 1.398438 1.1875 2.558594 2.378906 3.824219 3.574219v13.167969c-11.375 7.820312-23.964844 13.699218-37.257813 17.40625-12.324218 2.613281-24.117187 7.289062-34.882812 13.824218-9.34375 5.34375-18.824219 10.4375-28.304688 15.523438-1.382812.734375-2.960937 1.476562-4.625 2.269531-7.996093 2.855469-14.960937 8.015625-20.019531 14.832031-2.433593 4.671875-3.417969 9.960938-2.835937 15.199219 0 .851563.070312 1.765625.0625 2.660156v8.390625c.121094 14.472656 11.929687 26.117188 26.402344 26.042969h339.453124c14.457032.074219 26.257813-11.546875 26.402344-26.003906zm-375.191406-.050781v-8.234376c0-1.125 0-2.261718-.078125-3.414062-.292969-2.003906-.113281-4.046875.519531-5.972656 3.539063-3.558594 7.824219-6.292969 12.546875-8.003906 1.960938-.921876 3.804688-1.800782 5.425781-2.660157 9.617188-5.121093 19.234376-10.335937 28.714844-15.753906 9.136719-5.585937 19.144532-9.601563 29.609375-11.878906 1.546875-.289063 3.125-.683594 4.703125-1.117188-1.082031 18.320313.570313 46.148438 16.445313 65.996094h-88.550781c-5.046876.085937-9.214844-3.914063-9.335938-8.960937zm230.808594 8.988281h-106.863282c-28.160156-15.234375-26.863281-55.246094-24.746093-72.867188 4.191406-2.023437 8.140625-4.15625 11.621093-6.167969v10.765626c0 4.714843 3.820313 8.535156 8.535157 8.535156 4.710937 0 8.53125-3.820313 8.53125-8.535156v-23.628907c8.824219 12.238281 17.402343 23.628907 37.863281 23.628907h26.625c20.480469 0 29.011719-11.390626 37.886719-23.628907v23.628907c0 4.714843 3.820312 8.535156 8.535156 8.535156 4.710937 0 8.53125-3.820313 8.53125-8.535156v-10.765626c3.484375 2.011719 7.433594 4.144532 11.625 6.167969 2.089844 17.621094 3.410156 57.632813-24.75 72.867188zm127.394531-20.617188c-.042969 1.132813-.085937 2.269531-.078125 3.414063v8.257812c-.128906 5.039063-4.296875 9.03125-9.335938 8.945313h-88.550781c15.875-19.851563 17.527344-47.675781 16.445313-66 1.578125.4375 3.15625.855469 4.703125 1.121093 10.464843 2.277344 20.476562 6.292969 29.617187 11.878907 9.472656 5.417969 19.089844 10.589843 28.707032 15.75 1.621093.855469 3.464843 1.707031 5.425781 2.664062 4.726562 1.710938 9.011719 4.445313 12.554687 8.011719.625 1.921875.800782 3.957031.511719 5.957031zm0 0"/><path d="m382.601562 214.902344c1.875-11.269532 4.582032-38.050782-10.726562-43.109375-4.363281-1.429688-9.054688-1.523438-13.476562-.273438 0-4.957031-.050782-10.042969-.238282-15.292969 0-2.140624-.085937-4.460937-.1875-6.945312l-.246094-4.667969c-2.96875-57.574219-63.257812-75.109375-95.070312-76.347656h-13.652344c-31.480468 1.230469-91.769531 18.773437-94.722656 76.355469l-.261719 5.121094c-.09375 2.238281-.171875 4.394531-.164062 6.332031-.179688 5.375-.253907 10.488281-.253907 15.445312-4.375-1.253906-9.023437-1.167969-13.347656.246094-15.429687 5.0625-12.800781 31.832031-10.886718 43.523437 4.675781 15.878907 16.082031 28.90625 31.203124 35.640626-.082031 1.707031-.160156 3.414062-.21875 5.0625h-126.21875c-4.710937 0-8.53125 3.820312-8.53125 8.53125 0 4.714843 3.820313 8.535156 8.53125 8.535156h443.734376c4.710937 0 8.53125-3.820313 8.53125-8.535156 0-4.710938-3.820313-8.53125-8.53125-8.53125h-126.234376c-.058593-1.707032-.136718-3.363282-.222656-5.0625 15.230469-6.78125 26.660156-19.980469 31.191406-36.027344zm-16.753906-3.277344c-2.503906 7.777344-7.496094 14.515625-14.207031 19.175781.445313-3.464843 1.101563-6.828125 1.871094-10.675781 2.097656-9.792969 3.5-19.722656 4.195312-29.710938 2.257813-1.78125 5.066407-2.71875 7.9375-2.65625 1.707031 7.859376 1.777344 15.984376.203125 23.867188zm-219.695312.480469c-1.636719-8.042969-1.554688-16.339844.246094-24.347657 2.859374-.046874 5.644531.890626 7.894531 2.65625.695312 9.988282 2.097656 19.917969 4.195312 29.710938.769531 3.832031 1.425781 7.21875 1.871094 10.691406-6.589844-4.574218-11.5625-11.113281-14.207031-18.6875zm31.289062 43.894531c.070313-1.511719.128906-3.019531.207032-4.539062l.167968-5.597657c.019532-.308593.019532-.617187 0-.921875l.164063-5.582031c-.109375-7.601563-1.042969-15.167969-2.78125-22.570313-2.226563-10.273437-3.609375-20.707031-4.140625-31.207031-.484375-9.078125-.535156-18.515625-.160156-29.335937 0-1.871094.074218-3.816406.152343-6.023438l.265625-4.722656c2.882813-56.386719 75.261719-60.046875 78.003906-60.167969h12.976563c.761719 0 75.445313 3.59375 78.335937 60.179688l.257813 4.589843c.074219 2.109376.160156 4.207032.167969 6.449219.367187 10.445313.316406 19.945313-.167969 29.015625-.53125 10.503906-1.914063 20.945313-4.140625 31.222656-1.742188 7.402344-2.671875 14.96875-2.78125 22.570313l.164062 5.582031c-.019531.304688-.019531.613282 0 .921875l.167969 5.597657c.078125 1.519531.136719 3.027343.207031 4.539062zm0 0"/><path d="m8.535156 76.800781c4.710938 0 8.53125-3.820312 8.53125-8.535156v-25.597656c0-14.140625 11.460938-25.601563 25.601563-25.601563h25.597656c4.714844 0 8.535156-3.820312 8.535156-8.53125 0-4.714844-3.820312-8.535156-8.535156-8.535156h-25.597656c-23.554688.0273438-42.6406252 19.113281-42.667969 42.667969v25.597656c0 4.714844 3.820312 8.535156 8.535156 8.535156zm0 0"/><path d="m68.265625 494.933594h-25.597656c-14.140625 0-25.601563-11.460938-25.601563-25.601563v-25.597656c0-4.714844-3.820312-8.535156-8.53125-8.535156-4.714844 0-8.535156 3.820312-8.535156 8.535156v25.597656c.0273438 23.554688 19.113281 42.640625 42.667969 42.667969h25.597656c4.714844 0 8.535156-3.820312 8.535156-8.535156 0-4.710938-3.820312-8.53125-8.535156-8.53125zm0 0"/><path d="m503.464844 435.199219c-4.710938 0-8.53125 3.820312-8.53125 8.535156v25.597656c0 14.140625-11.460938 25.601563-25.601563 25.601563h-25.597656c-4.714844 0-8.535156 3.820312-8.535156 8.53125 0 4.714844 3.820312 8.535156 8.535156 8.535156h25.597656c23.554688-.027344 42.640625-19.113281 42.667969-42.667969v-25.597656c0-4.714844-3.820312-8.535156-8.535156-8.535156zm0 0"/><path d="m469.332031 0h-25.597656c-4.714844 0-8.535156 3.820312-8.535156 8.535156 0 4.710938 3.820312 8.53125 8.535156 8.53125h25.597656c14.140625 0 25.601563 11.460938 25.601563 25.601563v25.597656c0 4.714844 3.820312 8.535156 8.53125 8.535156 4.714844 0 8.535156-3.820312 8.535156-8.535156v-25.597656c-.027344-23.554688-19.113281-42.6406252-42.667969-42.667969zm0 0"/><path d="m51.199219 68.265625v-17.066406h17.066406c4.714844 0 8.535156-3.820313 8.535156-8.53125 0-4.714844-3.820312-8.535157-8.535156-8.535157h-17.066406c-9.425781 0-17.066407 7.640626-17.066407 17.066407v17.066406c0 4.714844 3.820313 8.535156 8.535157 8.535156 4.710937 0 8.53125-3.820312 8.53125-8.535156zm0 0"/><path d="m68.265625 460.800781h-17.066406v-17.066406c0-4.714844-3.820313-8.535156-8.53125-8.535156-4.714844 0-8.535157 3.820312-8.535157 8.535156v17.066406c0 9.425781 7.640626 17.066407 17.066407 17.066407h17.066406c4.714844 0 8.535156-3.820313 8.535156-8.535157 0-4.710937-3.820312-8.53125-8.535156-8.53125zm0 0"/><path d="m460.800781 443.734375v17.066406h-17.066406c-4.714844 0-8.535156 3.820313-8.535156 8.53125 0 4.714844 3.820312 8.535157 8.535156 8.535157h17.066406c9.425781 0 17.066407-7.640626 17.066407-17.066407v-17.066406c0-4.714844-3.820313-8.535156-8.535157-8.535156-4.710937 0-8.53125 3.820312-8.53125 8.535156zm0 0"/><path d="m469.332031 76.800781c4.714844 0 8.535157-3.820312 8.535157-8.535156v-17.066406c0-9.425781-7.640626-17.066407-17.066407-17.066407h-17.066406c-4.714844 0-8.535156 3.820313-8.535156 8.535157 0 4.710937 3.820312 8.53125 8.535156 8.53125h17.066406v17.066406c0 4.714844 3.820313 8.535156 8.53125 8.535156zm0 0"/></svg>